# xmcd
#
# Track frame offsets: 
#        150
#        10875
#        22047
#        33772
#        49207
#        63712
#        76947
#        85154
#        94538
#        105534
#        117266
#        127402
#        136338
#        151611
#        164606
#        177419
#        192249
#        207361
#        225401
#        239711
#
# Disc length: 3327 seconds
#
# Revision: 3
# Processed by: cddbd v1.5.2PL0 Copyright (c) Steve Scherf et al.
# Submitted via: ExactAudioCopyFreeDBPlugin 1.0
#
DISCID=0c0cfd14
DTITLE=J.J. Cale - Collected [CD1-3]
DYEAR=2006
DGENRE=General Blues
TTITLE0=After midnight  (1972)
TTITLE1=Crazy mama  (1972)
TTITLE2=Call me the breeze  (1972)
TTITLE3=Magnolia  (1972)
TTITLE4=Crying eyes  (1972)
TTITLE5=Lies  (1972)
TTITLE6=I'll kiss the world goodbye  (1972)
TTITLE7=If you're ever in Oklahoma  (1972)
TTITLE8=Changes  (1972)
TTITLE9=Crying  (1972)
TTITLE10=Cajun moon  (1974)
TTITLE11=Okie  (1972)
TTITLE12=Anyway the wind blows  (1972)
TTITLE13=Cocaine  (1976)
TTITLE14=Travelin' light  (1976)
TTITLE15=Hey baby  (1976)
TTITLE16=Cherry  (1976)
TTITLE17=You got something  (1976)
TTITLE18=I'll make love to you anytime  (1979)
TTITLE19=Don't cry sister  (1979)
EXTD=
EXTT0=
EXTT1=
EXTT2=
EXTT3=
EXTT4=
EXTT5=
EXTT6=
EXTT7=
EXTT8=
EXTT9=
EXTT10=
EXTT11=
EXTT12=
EXTT13=
EXTT14=
EXTT15=
EXTT16=
EXTT17=
EXTT18=
EXTT19=
PLAYORDER=
